# xmcd
#
# Track frame offsets: 
#        150
#        27242
#        51612
#        71021
#        87568
#        112200
#        135685
#        149498
#        173612
#        191318
#        207332
#        232585
#        258904
#
# Disc length: 4440 seconds
#
# Revision: 1
# Processed by: cddbd v1.5.2PL0 Copyright (c) Steve Scherf et al.
# Submitted via: ExactAudioCopyFreeDBPlugin 1.0
#
DISCID=be11560d
DTITLE=Dżem - The singles
DYEAR=2000
DGENRE=Blues
TTITLE0=Złoty paw
TTITLE1=Whisky
TTITLE2=Dzień, w którym pękło niebo
TTITLE3=Wokół sami lunatycy
TTITLE4=Skazany na bluesa
TTITLE5=Mała aleja róż
TTITLE6=Człowieku, co się z toba dzieje
TTITLE7=Czerwony jak cegła
TTITLE8=Ostatni ciężki rok
TTITLE9=Nie jesteś taki
TTITLE10=Naiwne pytania
TTITLE11=Zapal świeczkę
TTITLE12=DATA
EXTD=
EXTT0=
EXTT1=
EXTT2=
EXTT3=
EXTT4=
EXTT5=
EXTT6=
EXTT7=
EXTT8=
EXTT9=
EXTT10=
EXTT11=
EXTT12=
PLAYORDER=
